<?xml version="1.0" encoding="utf-8"?>
<!-- Generator: Adobe Illustrator 16.0.0, SVG Export Plug-In . SVG Version: 6.00 Build 0)  -->
<!DOCTYPE svg PUBLIC "-//W3C//DTD SVG 1.1//EN" "http://www.w3.org/Graphics/SVG/1.1/DTD/svg11.dtd">
<svg version="1.1" id="Default" xmlns="http://www.w3.org/2000/svg" xmlns:xlink="http://www.w3.org/1999/xlink" x="0px" y="0px"
	 width="612px" height="792px" viewBox="0 0 612 792" enable-background="new 0 0 612 792" xml:space="preserve">
<path fill="none" stroke="#000000" stroke-linecap="round" stroke-linejoin="round" d="M417.017,103.385
	c-0.001-1.631-1.118-3.329-2.904-3.33c-67.021-0.033-134.042-0.067-201.064-0.1c-1.787-0.001-2.901,1.696-2.9,3.327
	c0.006,12.731,0.011,25.463,0.018,38.195c0,1.631,1.117,3.329,2.904,3.33c67.021,0.033,134.042,0.067,201.063,0.1
	c1.787,0.001,2.901-1.696,2.901-3.327C417.028,128.848,417.022,116.116,417.017,103.385z"/>
<circle fill="none" stroke="#000000" stroke-linecap="round" stroke-linejoin="round" cx="255.941" cy="81.672" r="5.301"/>
<circle fill="none" stroke="#000000" stroke-linecap="round" stroke-linejoin="round" cx="211.542" cy="308.245" r="90"/>
<circle fill="none" stroke="#000000" stroke-linecap="round" stroke-linejoin="round" cx="299.113" cy="393.335" r="11.339"/>
<circle fill="none" stroke="#000000" stroke-linecap="round" stroke-linejoin="round" cx="271.98" cy="416.682" r="11.338"/>
<circle fill="none" stroke="#000000" stroke-linecap="round" stroke-linejoin="round" cx="439.563" cy="122.36" r="14.882"/>
<circle fill="none" stroke="#000000" stroke-linecap="round" stroke-linejoin="round" cx="188.446" cy="122.36" r="14.882"/>
<circle fill="none" stroke="#000000" stroke-linecap="round" stroke-linejoin="round" cx="473.578" cy="315.332" r="7.087"/>
<path fill="none" stroke="#000000" stroke-linecap="round" stroke-linejoin="round" d="M220.082,188.613
	c62.339,0,124.678,0,187.017,0c0,5.67,0,11.339,0,17.008c22.16,0,44.32,0,66.48,0c0-5.669,0-11.338,0-17.008
	c5.149,0,10.298,0,15.447,0c2.033,0,3.112-2.111,3.112-3.872c0-7.564,0-15.129,0-22.693c0-1.761-1.08-3.872-3.112-3.872
	c-116.957,0-233.914,0-350.871,0c-2.033,0-3.112,2.111-3.112,3.872c0,7.565,0,15.129,0,22.693c0,1.761,1.08,3.872,3.112,3.872
	c5.149,0,10.298,0,15.447,0c0,5.67,0,11.339,0,17.008c22.16,0,44.32,0,66.48,0C220.082,199.952,220.082,194.283,220.082,188.613z"/>
<path fill="none" stroke="#000000" stroke-linecap="round" stroke-linejoin="round" d="M525.197,296.932
	c-19.657,77.741-80.359,138.442-158.1,158.1c-35.119-8.88-71.896-8.88-107.015,0c-77.741-19.658-138.442-80.359-158.1-158.1
	c8.88-35.119,8.88-71.896,0-107.015c19.658-77.74,80.359-138.442,158.1-158.1c35.119,8.88,71.896,8.88,107.015,0
	c77.74,19.657,138.442,80.359,158.1,158.1C516.317,225.036,516.317,261.813,525.197,296.932z"/>
<circle fill="none" stroke="#000000" stroke-linecap="round" stroke-linejoin="round" cx="370.91" cy="81.672" r="5.301"/>
</svg>
